<svg xmlns="http://www.w3.org/2000/svg" width="805" height="600"><rect width="805" height="600" x="0" y="0" fill="#FFFFFF" id="background"/><g transform="translate(10,10)" id="viz"><g id="links"><path d="M0,290C322.5,290,322.5,14.696254874964565,645,14.696254874964565" fill="none" stroke="#ccc"/><path d="M0,290C322.5,290,322.5,46.953588067087026,645,46.953588067087026" fill="none" stroke="#ccc"/><path d="M0,290C322.5,290,322.5,79.21092125920946,645,79.21092125920946" fill="none" stroke="#ccc"/><path d="M0,290C322.5,290,322.5,111.4682544513319,645,111.4682544513319" fill="none" stroke="#ccc"/><path d="M0,290C322.5,290,322.5,140.86076420126108,645,140.86076420126108" fill="none" stroke="#ccc"/><path d="M0,290C322.5,290,322.5,167.38845050899695,645,167.38845050899695" fill="none" stroke="#ccc"/><path d="M0,290C322.5,290,322.5,193.91613681673283,645,193.91613681673283" fill="none" stroke="#ccc"/><path d="M0,290C322.5,290,322.5,220.4438231244687,645,220.4438231244687" fill="none" stroke="#ccc"/><path d="M0,290C322.5,290,322.5,246.97150943220458,645,246.97150943220458" fill="none" stroke="#ccc"/><path d="M0,290C322.5,290,322.5,273.4991957399405,645,273.4991957399405" fill="none" stroke="#ccc"/><path d="M0,290C322.5,290,322.5,300.0268820476764,645,300.0268820476764" fill="none" stroke="#ccc"/><path d="M0,290C322.5,290,322.5,326.5545683554123,645,326.5545683554123" fill="none" stroke="#ccc"/><path d="M0,290C322.5,290,322.5,353.0822546631482,645,353.0822546631482" fill="none" stroke="#ccc"/><path d="M0,290C322.5,290,322.5,379.6099409708841,645,379.6099409708841" fill="none" stroke="#ccc"/><path d="M0,290C322.5,290,322.5,406.13762727862,645,406.13762727862" fill="none" stroke="#ccc"/><path d="M0,290C322.5,290,322.5,432.6653135863559,645,432.6653135863559" fill="none" stroke="#ccc"/><path d="M0,290C322.5,290,322.5,459.1929998940918,645,459.1929998940918" fill="none" stroke="#ccc"/><path d="M0,290C322.5,290,322.5,485.72068620182773,645,485.72068620182773" fill="none" stroke="#ccc"/><path d="M0,290C322.5,290,322.5,512.2483725095638,645,512.2483725095638" fill="none" stroke="#ccc"/><path d="M0,290C322.5,290,322.5,538.7760588172995,645,538.7760588172995" fill="none" stroke="#ccc"/><path d="M0,290C322.5,290,322.5,565.3037451250356,645,565.3037451250356" fill="none" stroke="#ccc"/></g><g id="nodes"><g transform="translate(0,290)"><circle fill="#ccc" r="5"/><text text-anchor="end" dominant-baseline="text-before-edge" transform="translate(0,0)"><tspan x="-8" y="0" dy="0" style="font-family: Arial, sans-serif; font-size: 10px; fill: black; font-weight: normal;"/></text></g><g id="http://www.wikidata.org/entity/Q179485" transform="translate(645,14.696254874964565)"><circle fill="#cccccc" r="10"/><text text-anchor="start" dominant-baseline="text-before-edge" transform="translate(0,-5.5)"><tspan x="12" y="0" dy="0" style="font-family: Arial, sans-serif; font-size: 10px; fill: black; font-weight: bold;">Dom Juan</tspan></text></g><g id="http://www.wikidata.org/entity/Q2456214" transform="translate(645,46.953588067087026)"><circle fill="#cccccc" r="10"/><text text-anchor="start" dominant-baseline="text-before-edge" transform="translate(0,-5.5)"><tspan x="12" y="0" dy="0" style="font-family: Arial, sans-serif; font-size: 10px; fill: black; font-weight: bold;">Monsieur de Pourceaugnac</tspan></text></g><g id="http://www.wikidata.org/entity/Q3205504" transform="translate(645,79.21092125920946)"><circle fill="#ff7f0e" r="10"/><text text-anchor="start" dominant-baseline="text-before-edge" transform="translate(0,-5.5)"><tspan x="12" y="0" dy="0" style="font-family: Arial, sans-serif; font-size: 10px; fill: black; font-weight: bold;">The Blunderer, or the Counterplots</tspan></text></g><g id="http://www.wikidata.org/entity/Q3232857" transform="translate(645,111.4682544513319)"><circle fill="#8c564b" r="10"/><text text-anchor="start" dominant-baseline="text-before-edge" transform="translate(0,-5.5)"><tspan x="12" y="0" dy="0" style="font-family: Arial, sans-serif; font-size: 10px; fill: black; font-weight: bold;">Les Fâcheux</tspan></text></g><g id="http://www.wikidata.org/entity/Q205875" transform="translate(645,140.86076420126108)"><circle fill="#cccccc" r="7.071067811865475"/><text text-anchor="start" dominant-baseline="text-before-edge" transform="translate(0,-5.5)"><tspan x="9.071067811865476" y="0" dy="0" style="font-family: Arial, sans-serif; font-size: 10px; fill: black; font-weight: bold;">Tartuffe</tspan></text></g><g id="http://www.wikidata.org/entity/Q389933" transform="translate(645,167.38845050899695)"><circle fill="#cccccc" r="7.071067811865475"/><text text-anchor="start" dominant-baseline="text-before-edge" transform="translate(0,-5.5)"><tspan x="9.071067811865476" y="0" dy="0" style="font-family: Arial, sans-serif; font-size: 10px; fill: black; font-weight: bold;">The Miser</tspan></text></g><g id="http://www.wikidata.org/entity/Q588161" transform="translate(645,193.91613681673283)"><circle fill="#cccccc" r="7.071067811865475"/><text text-anchor="start" dominant-baseline="text-before-edge" transform="translate(0,-5.5)"><tspan x="9.071067811865476" y="0" dy="0" style="font-family: Arial, sans-serif; font-size: 10px; fill: black; font-weight: bold;">The Imaginary Invalid</tspan></text></g><g id="http://www.wikidata.org/entity/Q919540" transform="translate(645,220.4438231244687)"><circle fill="#cccccc" r="7.071067811865475"/><text text-anchor="start" dominant-baseline="text-before-edge" transform="translate(0,-5.5)"><tspan x="9.071067811865476" y="0" dy="0" style="font-family: Arial, sans-serif; font-size: 10px; fill: black; font-weight: bold;">George Dandin ou le Mari confondu</tspan></text></g><g id="http://www.wikidata.org/entity/Q937443" transform="translate(645,246.97150943220458)"><circle fill="#e377c2" r="7.071067811865475"/><text text-anchor="start" dominant-baseline="text-before-edge" transform="translate(0,-5.5)"><tspan x="9.071067811865476" y="0" dy="0" style="font-family: Arial, sans-serif; font-size: 10px; fill: black; font-weight: bold;">The School for Wives</tspan></text></g><g id="http://www.wikidata.org/entity/Q1053387" transform="translate(645,273.4991957399405)"><circle fill="#17becf" r="7.071067811865475"/><text text-anchor="start" dominant-baseline="text-before-edge" transform="translate(0,-5.5)"><tspan x="9.071067811865476" y="0" dy="0" style="font-family: Arial, sans-serif; font-size: 10px; fill: black; font-weight: bold;">The Misanthrope</tspan></text></g><g id="http://www.wikidata.org/entity/Q1054372" transform="translate(645,300.0268820476764)"><circle fill="#cccccc" r="7.071067811865475"/><text text-anchor="start" dominant-baseline="text-before-edge" transform="translate(0,-5.5)"><tspan x="9.071067811865476" y="0" dy="0" style="font-family: Arial, sans-serif; font-size: 10px; fill: black; font-weight: bold;">Le Bourgeois gentilhomme</tspan></text></g><g id="http://www.wikidata.org/entity/Q1218375" transform="translate(645,326.5545683554123)"><circle fill="#cccccc" r="7.071067811865475"/><text text-anchor="start" dominant-baseline="text-before-edge" transform="translate(0,-5.5)"><tspan x="9.071067811865476" y="0" dy="0" style="font-family: Arial, sans-serif; font-size: 10px; fill: black; font-weight: bold;">Les Femmes Savantes</tspan></text></g><g id="http://www.wikidata.org/entity/Q1219041" transform="translate(645,353.0822546631482)"><circle fill="#2ca02c" r="7.071067811865475"/><text text-anchor="start" dominant-baseline="text-before-edge" transform="translate(0,-5.5)"><tspan x="9.071067811865476" y="0" dy="0" style="font-family: Arial, sans-serif; font-size: 10px; fill: black; font-weight: bold;">Les Précieuses ridicules</tspan></text></g><g id="http://www.wikidata.org/entity/Q1423962" transform="translate(645,379.6099409708841)"><circle fill="#9467bd" r="7.071067811865475"/><text text-anchor="start" dominant-baseline="text-before-edge" transform="translate(0,-5.5)"><tspan x="9.071067811865476" y="0" dy="0" style="font-family: Arial, sans-serif; font-size: 10px; fill: black; font-weight: bold;">The School for Husbands</tspan></text></g><g id="http://www.wikidata.org/entity/Q1987832" transform="translate(645,406.13762727862)"><circle fill="#1f77b4" r="7.071067811865475"/><text text-anchor="start" dominant-baseline="text-before-edge" transform="translate(0,-5.5)"><tspan x="9.071067811865476" y="0" dy="0" style="font-family: Arial, sans-serif; font-size: 10px; fill: black; font-weight: bold;">Amphitryon</tspan></text></g><g id="http://www.wikidata.org/entity/Q2044613" transform="translate(645,432.6653135863559)"><circle fill="#bcbd22" r="7.071067811865475"/><text text-anchor="start" dominant-baseline="text-before-edge" transform="translate(0,-5.5)"><tspan x="9.071067811865476" y="0" dy="0" style="font-family: Arial, sans-serif; font-size: 10px; fill: black; font-weight: bold;">L'Amour médecin</tspan></text></g><g id="http://www.wikidata.org/entity/Q2469735" transform="translate(645,459.1929998940918)"><circle fill="#cccccc" r="7.071067811865475"/><text text-anchor="start" dominant-baseline="text-before-edge" transform="translate(0,-5.5)"><tspan x="9.071067811865476" y="0" dy="0" style="font-family: Arial, sans-serif; font-size: 10px; fill: black; font-weight: bold;">Scapin the Schemer</tspan></text></g><g id="http://www.wikidata.org/entity/Q3034332" transform="translate(645,485.72068620182773)"><circle fill="#cccccc" r="7.071067811865475"/><text text-anchor="start" dominant-baseline="text-before-edge" transform="translate(0,-5.5)"><tspan x="9.071067811865476" y="0" dy="0" style="font-family: Arial, sans-serif; font-size: 10px; fill: black; font-weight: bold;">Dom Garcie de Navarre ou le Prince jaloux</tspan></text></g><g id="http://www.wikidata.org/entity/Q3204061" transform="translate(645,512.2483725095638)"><circle fill="#7f7f7f" r="7.071067811865475"/><text text-anchor="start" dominant-baseline="text-before-edge" transform="translate(0,-5.5)"><tspan x="9.071067811865476" y="0" dy="0" style="font-family: Arial, sans-serif; font-size: 10px; fill: black; font-weight: bold;">L'Impromptu de Versailles</tspan></text></g><g id="http://www.wikidata.org/entity/Q3207682" transform="translate(645,538.7760588172995)"><circle fill="#1f77b4" r="7.071067811865475"/><text text-anchor="start" dominant-baseline="text-before-edge" transform="translate(0,-5.5)"><tspan x="9.071067811865476" y="0" dy="0" style="font-family: Arial, sans-serif; font-size: 10px; fill: black; font-weight: bold;">La comtesse d'Escarbagnas</tspan></text></g><g id="http://www.wikidata.org/entity/Q3481105" transform="translate(645,565.3037451250356)"><circle fill="#d62728" r="7.071067811865475"/><text text-anchor="start" dominant-baseline="text-before-edge" transform="translate(0,-5.5)"><tspan x="9.071067811865476" y="0" dy="0" style="font-family: Arial, sans-serif; font-size: 10px; fill: black; font-weight: bold;">The Imaginary Cuckold</tspan></text></g></g></g></svg>