<svg xmlns="http://www.w3.org/2000/svg" width="805" height="600"><rect width="805" height="600" x="0" y="0" fill="#FFFFFF" id="background"/><g transform="translate(10,10)" id="viz"><g id="links"><path d="M0,290C322.5,290,322.5,10.063853520710342,645,10.063853520710342" fill="none" stroke="#ccc"/><path d="M0,290C322.5,290,322.5,33.10458898601567,645,33.10458898601567" fill="none" stroke="#ccc"/><path d="M0,290C322.5,290,322.5,56.145324451321024,645,56.145324451321024" fill="none" stroke="#ccc"/><path d="M0,290C322.5,290,322.5,79.18605991662638,645,79.18605991662638" fill="none" stroke="#ccc"/><path d="M0,290C322.5,290,322.5,102.22679538193171,645,102.22679538193171" fill="none" stroke="#ccc"/><path d="M0,290C322.5,290,322.5,122.35450242335239,645,122.35450242335239" fill="none" stroke="#ccc"/><path d="M0,290C322.5,290,322.5,139.56918104088845,645,139.56918104088845" fill="none" stroke="#ccc"/><path d="M0,290C322.5,290,322.5,156.7838596584245,645,156.7838596584245" fill="none" stroke="#ccc"/><path d="M0,290C322.5,290,322.5,173.99853827596056,645,173.99853827596056" fill="none" stroke="#ccc"/><path d="M0,290C322.5,290,322.5,191.2132168934966,645,191.2132168934966" fill="none" stroke="#ccc"/><path d="M0,290C322.5,290,322.5,208.42789551103263,645,208.42789551103263" fill="none" stroke="#ccc"/><path d="M0,290C322.5,290,322.5,225.64257412856867,645,225.64257412856867" fill="none" stroke="#ccc"/><path d="M0,290C322.5,290,322.5,242.8572527461047,645,242.8572527461047" fill="none" stroke="#ccc"/><path d="M0,290C322.5,290,322.5,260.0719313636408,645,260.0719313636408" fill="none" stroke="#ccc"/><path d="M0,290C322.5,290,322.5,277.2866099811768,645,277.2866099811768" fill="none" stroke="#ccc"/><path d="M0,290C322.5,290,322.5,294.50128859871285,645,294.50128859871285" fill="none" stroke="#ccc"/><path d="M0,290C322.5,290,322.5,311.7159672162489,645,311.7159672162489" fill="none" stroke="#ccc"/><path d="M0,290C322.5,290,322.5,328.930645833785,645,328.930645833785" fill="none" stroke="#ccc"/><path d="M0,290C322.5,290,322.5,346.145324451321,645,346.145324451321" fill="none" stroke="#ccc"/><path d="M0,290C322.5,290,322.5,363.36000306885705,645,363.36000306885705" fill="none" stroke="#ccc"/><path d="M0,290C322.5,290,322.5,380.5746816863931,645,380.5746816863931" fill="none" stroke="#ccc"/><path d="M0,290C322.5,290,322.5,397.78936030392913,645,397.78936030392913" fill="none" stroke="#ccc"/><path d="M0,290C322.5,290,322.5,415.00403892146517,645,415.00403892146517" fill="none" stroke="#ccc"/><path d="M0,290C322.5,290,322.5,432.2187175390012,645,432.2187175390012" fill="none" stroke="#ccc"/><path d="M0,290C322.5,290,322.5,449.43339615653724,645,449.43339615653724" fill="none" stroke="#ccc"/><path d="M0,290C322.5,290,322.5,466.6480747740733,645,466.6480747740733" fill="none" stroke="#ccc"/><path d="M0,290C322.5,290,322.5,483.8627533916093,645,483.8627533916093" fill="none" stroke="#ccc"/><path d="M0,290C322.5,290,322.5,501.07743200914535,645,501.07743200914535" fill="none" stroke="#ccc"/><path d="M0,290C322.5,290,322.5,518.2921106266814,645,518.2921106266814" fill="none" stroke="#ccc"/><path d="M0,290C322.5,290,322.5,535.5067892442174,645,535.5067892442174" fill="none" stroke="#ccc"/><path d="M0,290C322.5,290,322.5,552.7214678617536,645,552.7214678617536" fill="none" stroke="#ccc"/><path d="M0,290C322.5,290,322.5,569.9361464792896,645,569.9361464792896" fill="none" stroke="#ccc"/></g><g id="nodes"><g transform="translate(0,290)"><circle fill="#ccc" r="5"/><text text-anchor="end" dominant-baseline="text-before-edge" transform="translate(0,0)"><tspan x="-8" y="0" dy="0" style="font-family: Arial, sans-serif; font-size: 10px; fill: black; font-weight: normal;"/></text></g><g id="http://www.wikidata.org/entity/Q179485" transform="translate(645,10.063853520710342)"><circle fill="#cccccc" r="10"/><text text-anchor="start" dominant-baseline="text-before-edge" transform="translate(0,-5.5)"><tspan x="12" y="0" dy="0" style="font-family: Arial, sans-serif; font-size: 10px; fill: black; font-weight: bold;">Dom Juan ou le Festin de Pierre</tspan></text></g><g id="http://www.wikidata.org/entity/Q2456214" transform="translate(645,33.10458898601567)"><circle fill="#cccccc" r="10"/><text text-anchor="start" dominant-baseline="text-before-edge" transform="translate(0,0)"><tspan x="12" y="0" dy="0" style="font-family: Arial, sans-serif; font-size: 10px; fill: black; font-weight: bold;"/></text></g><g id="http://www.wikidata.org/entity/Q3205504" transform="translate(645,56.145324451321024)"><circle fill="#ff7f0e" r="10"/><text text-anchor="start" dominant-baseline="text-before-edge" transform="translate(0,0)"><tspan x="12" y="0" dy="0" style="font-family: Arial, sans-serif; font-size: 10px; fill: black; font-weight: bold;"/></text></g><g id="http://www.wikidata.org/entity/Q3227160" transform="translate(645,79.18605991662638)"><circle fill="#cccccc" r="10"/><text text-anchor="start" dominant-baseline="text-before-edge" transform="translate(0,0)"><tspan x="12" y="0" dy="0" style="font-family: Arial, sans-serif; font-size: 10px; fill: black; font-weight: bold;"/></text></g><g id="http://www.wikidata.org/entity/Q3232857" transform="translate(645,102.22679538193171)"><circle fill="#8c564b" r="10"/><text text-anchor="start" dominant-baseline="text-before-edge" transform="translate(0,0)"><tspan x="12" y="0" dy="0" style="font-family: Arial, sans-serif; font-size: 10px; fill: black; font-weight: bold;"/></text></g><g id="http://www.wikidata.org/entity/Q109336333" transform="translate(645,122.35450242335239)"><circle fill="#1f77b4" r="7.071067811865475"/><text text-anchor="start" dominant-baseline="text-before-edge" transform="translate(0,-5.5)"><tspan x="9.071067811865476" y="0" dy="0" style="font-family: Arial, sans-serif; font-size: 10px; fill: black; font-weight: bold;">דון ז'ואן בגלגוליו</tspan></text></g><g id="http://www.wikidata.org/entity/Q205875" transform="translate(645,139.56918104088845)"><circle fill="#cccccc" r="7.071067811865475"/><text text-anchor="start" dominant-baseline="text-before-edge" transform="translate(0,-5.5)"><tspan x="9.071067811865476" y="0" dy="0" style="font-family: Arial, sans-serif; font-size: 10px; fill: black; font-weight: bold;">Le Tartuffe ou l'Imposteur</tspan></text></g><g id="http://www.wikidata.org/entity/Q389933" transform="translate(645,156.7838596584245)"><circle fill="#cccccc" r="7.071067811865475"/><text text-anchor="start" dominant-baseline="text-before-edge" transform="translate(0,-6)"><tspan x="9.071067811865476" y="0" dy="0" style="font-family: Arial, sans-serif; font-size: 10px; fill: black; font-weight: bold;">L'Avare ou l’École du mensonge</tspan></text></g><g id="http://www.wikidata.org/entity/Q588161" transform="translate(645,173.99853827596056)"><circle fill="#cccccc" r="7.071067811865475"/><text text-anchor="start" dominant-baseline="text-before-edge" transform="translate(0,-5.5)"><tspan x="9.071067811865476" y="0" dy="0" style="font-family: Arial, sans-serif; font-size: 10px; fill: black; font-weight: bold;">Le Malade imaginaire</tspan></text></g><g id="http://www.wikidata.org/entity/Q663716" transform="translate(645,191.2132168934966)"><circle fill="#cccccc" r="7.071067811865475"/><text text-anchor="start" dominant-baseline="text-before-edge" transform="translate(0,0)"><tspan x="9.071067811865476" y="0" dy="0" style="font-family: Arial, sans-serif; font-size: 10px; fill: black; font-weight: bold;"/></text></g><g id="http://www.wikidata.org/entity/Q919540" transform="translate(645,208.42789551103263)"><circle fill="#cccccc" r="7.071067811865475"/><text text-anchor="start" dominant-baseline="text-before-edge" transform="translate(0,-5.5)"><tspan x="9.071067811865476" y="0" dy="0" style="font-family: Arial, sans-serif; font-size: 10px; fill: black; font-weight: bold;">George Dandin, ou le Mari confondu</tspan></text></g><g id="http://www.wikidata.org/entity/Q937443" transform="translate(645,225.64257412856867)"><circle fill="#e377c2" r="7.071067811865475"/><text text-anchor="start" dominant-baseline="text-before-edge" transform="translate(0,-6)"><tspan x="9.071067811865476" y="0" dy="0" style="font-family: Arial, sans-serif; font-size: 10px; fill: black; font-weight: bold;">L'École des femmes</tspan></text></g><g id="http://www.wikidata.org/entity/Q1053387" transform="translate(645,242.8572527461047)"><circle fill="#cccccc" r="7.071067811865475"/><text text-anchor="start" dominant-baseline="text-before-edge" transform="translate(0,-5.5)"><tspan x="9.071067811865476" y="0" dy="0" style="font-family: Arial, sans-serif; font-size: 10px; fill: black; font-weight: bold;">Le Misanthrope</tspan></text></g><g id="http://www.wikidata.org/entity/Q1054372" transform="translate(645,260.0719313636408)"><circle fill="#cccccc" r="7.071067811865475"/><text text-anchor="start" dominant-baseline="text-before-edge" transform="translate(0,-5.5)"><tspan x="9.071067811865476" y="0" dy="0" style="font-family: Arial, sans-serif; font-size: 10px; fill: black; font-weight: bold;">Le Bourgeois gentilhomme</tspan></text></g><g id="http://www.wikidata.org/entity/Q1218375" transform="translate(645,277.2866099811768)"><circle fill="#cccccc" r="7.071067811865475"/><text text-anchor="start" dominant-baseline="text-before-edge" transform="translate(0,0)"><tspan x="9.071067811865476" y="0" dy="0" style="font-family: Arial, sans-serif; font-size: 10px; fill: black; font-weight: bold;"/></text></g><g id="http://www.wikidata.org/entity/Q1219041" transform="translate(645,294.50128859871285)"><circle fill="#2ca02c" r="7.071067811865475"/><text text-anchor="start" dominant-baseline="text-before-edge" transform="translate(0,0)"><tspan x="9.071067811865476" y="0" dy="0" style="font-family: Arial, sans-serif; font-size: 10px; fill: black; font-weight: bold;"/></text></g><g id="http://www.wikidata.org/entity/Q1423962" transform="translate(645,311.7159672162489)"><circle fill="#9467bd" r="7.071067811865475"/><text text-anchor="start" dominant-baseline="text-before-edge" transform="translate(0,-6)"><tspan x="9.071067811865476" y="0" dy="0" style="font-family: Arial, sans-serif; font-size: 10px; fill: black; font-weight: bold;">L'École des maris</tspan></text></g><g id="http://www.wikidata.org/entity/Q1987832" transform="translate(645,328.930645833785)"><circle fill="#1f77b4" r="7.071067811865475"/><text text-anchor="start" dominant-baseline="text-before-edge" transform="translate(0,-5.5)"><tspan x="9.071067811865476" y="0" dy="0" style="font-family: Arial, sans-serif; font-size: 10px; fill: black; font-weight: bold;">Amphitryon</tspan></text></g><g id="http://www.wikidata.org/entity/Q2044613" transform="translate(645,346.145324451321)"><circle fill="#17becf" r="7.071067811865475"/><text text-anchor="start" dominant-baseline="text-before-edge" transform="translate(0,0)"><tspan x="9.071067811865476" y="0" dy="0" style="font-family: Arial, sans-serif; font-size: 10px; fill: black; font-weight: bold;"/></text></g><g id="http://www.wikidata.org/entity/Q2401538" transform="translate(645,363.36000306885705)"><circle fill="#7f7f7f" r="7.071067811865475"/><text text-anchor="start" dominant-baseline="text-before-edge" transform="translate(0,-5.5)"><tspan x="9.071067811865476" y="0" dy="0" style="font-family: Arial, sans-serif; font-size: 10px; fill: black; font-weight: bold;">La jalousie du barbouillé</tspan></text></g><g id="http://www.wikidata.org/entity/Q2469735" transform="translate(645,380.5746816863931)"><circle fill="#cccccc" r="7.071067811865475"/><text text-anchor="start" dominant-baseline="text-before-edge" transform="translate(0,-5.5)"><tspan x="9.071067811865476" y="0" dy="0" style="font-family: Arial, sans-serif; font-size: 10px; fill: black; font-weight: bold;">Les Fourberies de Scapin</tspan></text></g><g id="http://www.wikidata.org/entity/Q3034332" transform="translate(645,397.78936030392913)"><circle fill="#cccccc" r="7.071067811865475"/><text text-anchor="start" dominant-baseline="text-before-edge" transform="translate(0,-5.5)"><tspan x="9.071067811865476" y="0" dy="0" style="font-family: Arial, sans-serif; font-size: 10px; fill: black; font-weight: bold;">Dom Garcie de Navarre ou le Prince jaloux</tspan></text></g><g id="http://www.wikidata.org/entity/Q3204061" transform="translate(645,415.00403892146517)"><circle fill="#7f7f7f" r="7.071067811865475"/><text text-anchor="start" dominant-baseline="text-before-edge" transform="translate(0,0)"><tspan x="9.071067811865476" y="0" dy="0" style="font-family: Arial, sans-serif; font-size: 10px; fill: black; font-weight: bold;"/></text></g><g id="http://www.wikidata.org/entity/Q3207682" transform="translate(645,432.2187175390012)"><circle fill="#1f77b4" r="7.071067811865475"/><text text-anchor="start" dominant-baseline="text-before-edge" transform="translate(0,0)"><tspan x="9.071067811865476" y="0" dy="0" style="font-family: Arial, sans-serif; font-size: 10px; fill: black; font-weight: bold;"/></text></g><g id="http://www.wikidata.org/entity/Q3207946" transform="translate(645,449.43339615653724)"><circle fill="#7f7f7f" r="7.071067811865475"/><text text-anchor="start" dominant-baseline="text-before-edge" transform="translate(0,-6)"><tspan x="9.071067811865476" y="0" dy="0" style="font-family: Arial, sans-serif; font-size: 10px; fill: black; font-weight: bold;">La Critique de l'École des femmes</tspan></text></g><g id="http://www.wikidata.org/entity/Q3211935" transform="translate(645,466.6480747740733)"><circle fill="#bcbd22" r="7.071067811865475"/><text text-anchor="start" dominant-baseline="text-before-edge" transform="translate(0,0)"><tspan x="9.071067811865476" y="0" dy="0" style="font-family: Arial, sans-serif; font-size: 10px; fill: black; font-weight: bold;"/></text></g><g id="http://www.wikidata.org/entity/Q3222377" transform="translate(645,483.8627533916093)"><circle fill="#1f77b4" r="7.071067811865475"/><text text-anchor="start" dominant-baseline="text-before-edge" transform="translate(0,0)"><tspan x="9.071067811865476" y="0" dy="0" style="font-family: Arial, sans-serif; font-size: 10px; fill: black; font-weight: bold;"/></text></g><g id="http://www.wikidata.org/entity/Q3224315" transform="translate(645,501.07743200914535)"><circle fill="#1f77b4" r="7.071067811865475"/><text text-anchor="start" dominant-baseline="text-before-edge" transform="translate(0,-5.5)"><tspan x="9.071067811865476" y="0" dy="0" style="font-family: Arial, sans-serif; font-size: 10px; fill: black; font-weight: bold;">Le mariage forcé</tspan></text></g><g id="http://www.wikidata.org/entity/Q3332920" transform="translate(645,518.2921106266814)"><circle fill="#cccccc" r="7.071067811865475"/><text text-anchor="start" dominant-baseline="text-before-edge" transform="translate(0,0)"><tspan x="9.071067811865476" y="0" dy="0" style="font-family: Arial, sans-serif; font-size: 10px; fill: black; font-weight: bold;"/></text></g><g id="http://www.wikidata.org/entity/Q3481105" transform="translate(645,535.5067892442174)"><circle fill="#d62728" r="7.071067811865475"/><text text-anchor="start" dominant-baseline="text-before-edge" transform="translate(0,0)"><tspan x="9.071067811865476" y="0" dy="0" style="font-family: Arial, sans-serif; font-size: 10px; fill: black; font-weight: bold;"/></text></g><g id="http://www.wikidata.org/entity/Q14071768" transform="translate(645,552.7214678617536)"><circle fill="#1f77b4" r="7.071067811865475"/><text text-anchor="start" dominant-baseline="text-before-edge" transform="translate(0,-5.5)"><tspan x="9.071067811865476" y="0" dy="0" style="font-family: Arial, sans-serif; font-size: 10px; fill: black; font-weight: bold;">Le Médecin volant</tspan></text></g><g id="http://www.wikidata.org/entity/Q17636452" transform="translate(645,569.9361464792896)"><circle fill="#cccccc" r="7.071067811865475"/><text text-anchor="start" dominant-baseline="text-before-edge" transform="translate(0,0)"><tspan x="9.071067811865476" y="0" dy="0" style="font-family: Arial, sans-serif; font-size: 10px; fill: black; font-weight: bold;"/></text></g></g></g></svg>